<?xml version="1.0" standalone="no"?>
<!DOCTYPE svg PUBLIC "-//W3C//DTD SVG 20010904//EN"
 "http://www.w3.org/TR/2001/REC-SVG-20010904/DTD/svg10.dtd">
<svg version="1.0" xmlns="http://www.w3.org/2000/svg"
 width="1500.000000pt" height="1500.000000pt" viewBox="0 0 1500.000000 1500.000000"
 preserveAspectRatio="xMidYMid meet">
<metadata>
Created by potrace 1.14, written by Peter Selinger 2001-2017
</metadata>
<g transform="translate(0.000000,1500.000000) scale(0.100000,-0.100000)"
fill="#000000" stroke="none">
<path d="M7450 14478 c-27 -5 -112 -46 -224 -109 -169 -96 -2381 -1358 -2821
-1611 -110 -63 -220 -126 -245 -140 -25 -14 -88 -50 -140 -80 -131 -76 -447
-257 -490 -281 -19 -11 -80 -45 -135 -77 -55 -32 -116 -67 -135 -78 -19 -10
-339 -194 -710 -407 -371 -213 -688 -396 -705 -405 -48 -27 -284 -164 -480
-277 -99 -58 -188 -114 -198 -126 -10 -12 -29 -44 -44 -72 l-25 -49 0 -3281
-1 -3281 23 -44 c13 -25 31 -56 41 -69 17 -21 122 -87 269 -169 25 -13 70 -39
100 -57 50 -30 743 -429 821 -473 125 -70 591 -339 621 -359 21 -12 39 -23 42
-23 2 0 118 -66 257 -146 140 -80 279 -160 309 -176 30 -17 60 -34 65 -38 6
-4 30 -19 55 -32 50 -28 1080 -618 1285 -736 72 -41 150 -86 175 -100 25 -14
133 -75 240 -137 107 -62 218 -125 245 -140 28 -15 77 -43 110 -63 72 -42 25
-15 555 -316 239 -136 464 -265 500 -286 118 -69 504 -287 559 -315 73 -38
189 -47 241 -18 19 11 67 37 105 58 39 21 158 88 265 148 107 61 215 121 240
135 25 14 122 69 216 122 93 54 191 109 216 123 26 14 162 92 305 173 142 81
276 157 298 169 22 12 87 49 145 82 58 34 863 494 1790 1023 2466 1409 2631
1505 2693 1580 17 20 28 49 34 87 8 58 12 6364 4 6498 -3 39 -9 85 -15 103 -8
27 -51 74 -101 110 -69 50 -798 479 -1155 680 -25 14 -198 113 -385 220 -187
107 -365 209 -395 225 -30 17 -67 38 -82 49 -14 10 -28 18 -30 18 -4 0 -453
255 -538 305 -26 16 -655 375 -718 411 -20 11 -59 33 -87 49 -27 15 -108 62
-180 103 -71 41 -150 86 -175 100 -25 14 -427 243 -893 509 -467 266 -865 493
-885 504 -20 11 -44 24 -52 29 -52 32 -152 90 -155 90 -1 0 -105 58 -229 129
-251 143 -291 157 -396 139z"/>
</g>
</svg>
